Coordinates
version=1
nRows=27
nColumns=12
inDegrees=yes

Units are S.I. units (second, meters, Newtons, ...)
Angles are in degrees

endheader
time	SC_y	SC_z	SC_x	AC_y	AC_z	AC_x	GH_y	GH_z	GH_yy	EL_x	PS_y
       0.0              -23.93          36.11          19.71          58.55         -5.302          10.52          109.0         -16.62          51.09          6.441          9.652
   0.01024              -23.94           36.1          19.71          58.54         -5.304          10.52          108.9         -16.62          51.11          6.446          9.658
   0.02049              -23.94           36.1          19.71          58.54         -5.306          10.51          108.9         -16.62          51.12          6.452          9.665
   0.03073              -23.94           36.1           19.7          58.53         -5.308          10.51          108.9         -16.62          51.14          6.458          9.673
   0.04098              -23.95           36.1           19.7          58.53          -5.31          10.51          108.8         -16.62          51.15          6.464           9.68
   0.05122              -23.95           36.1           19.7          58.52         -5.313           10.5          108.8         -16.62          51.17          6.471          9.689
   0.06147              -23.96           36.1          19.69          58.52         -5.315           10.5          108.7         -16.62          51.19          6.478          9.698
   0.07171              -23.96          36.09          19.69          58.51         -5.318           10.5          108.7         -16.62          51.21          6.485          9.707
   0.08196              -23.97          36.09          19.69          58.51         -5.321          10.49          108.6         -16.62          51.23          6.493          9.718
    0.0922              -23.97          36.09          19.68           58.5         -5.324          10.49          108.5         -16.62          51.25          6.502          9.729
    0.1024              -23.98          36.09          19.68          58.49         -5.328          10.48          108.5         -16.62          51.28          6.511           9.74
    0.1127              -23.98          36.08          19.67          58.48         -5.331          10.48          108.4         -16.62          51.31          6.521          9.753
    0.1229              -23.99          36.08          19.67          58.47         -5.335          10.47          108.3         -16.62          51.33          6.532          9.767
    0.1332               -24.0          36.08          19.66          58.47         -5.339          10.46          108.2         -16.62          51.37          6.543          9.782
    0.1434              -24.01          36.07          19.66          58.46         -5.344          10.46          108.1         -16.62           51.4          6.556          9.798
    0.1537              -24.02          36.07          19.65          58.44         -5.349          10.45          108.0         -16.62          51.44           6.57          9.815
    0.1639              -24.02          36.07          19.64          58.43         -5.354          10.44          107.9         -16.62          51.48          6.585          9.834
    0.1742              -24.03          36.06          19.64          58.42          -5.36          10.43          107.8         -16.62          51.52          6.601          9.855
    0.1844              -24.05          36.06          19.63          58.41         -5.367          10.43          107.7         -16.62          51.57          6.618          9.877
    0.1947              -24.06          36.05          19.62          58.39         -5.374          10.41          107.5         -16.62          51.62          6.638          9.902
    0.2049              -24.07          36.04          19.61          58.37         -5.382           10.4          107.4         -16.62          51.67          6.659          9.929
    0.2151              -24.09          36.04           19.6          58.35          -5.39          10.39          107.2         -16.63          51.74          6.682          9.959
    0.2254               -24.1          36.03          19.58          58.33           -5.4          10.38          107.0         -16.63          51.81          6.708          9.992
    0.2356              -24.12          36.02          19.57          58.31          -5.41          10.36          106.8         -16.63          51.88          6.737          10.03
    0.2459              -24.14          36.01          19.56          58.29         -5.422          10.35          106.5         -16.63          51.97          6.769          10.07
    0.2561              -24.16           36.0          19.54          58.26         -5.435          10.33          106.3         -16.63          52.06          6.804          10.11
    0.2664              -24.19          35.99          19.52          58.23         -5.449          10.31          106.0         -16.63          52.17          6.844          10.16
